<svg width="22" height="13" viewBox="0 0 22 13" fill="none" xmlns="http://www.w3.org/2000/svg">
<path d="M7.94458 10.5584C7.83056 11.236 7.43167 11.856 6.82118 12.3045C6.21068 12.7531 5.42957 13 4.62133 13C3.81309 13 3.03198 12.7531 2.42148 12.3045C1.81099 11.856 1.4121 11.236 1.29808 10.5584H0.30542V0.812182C0.30542 0.596778 0.406467 0.390196 0.586331 0.237883C0.766196 0.0855691 1.01014 0 1.26451 0H14.6918C14.9462 0 15.1901 0.0855691 15.37 0.237883C15.5498 0.390196 15.6509 0.596778 15.6509 0.812182V2.43655H18.5281L21.4054 5.73076V10.5584H19.4537C19.3397 11.236 18.9408 11.856 18.3303 12.3045C17.7198 12.7531 16.9387 13 16.1304 13C15.3222 13 14.5411 12.7531 13.9306 12.3045C13.3201 11.856 12.9212 11.236 12.8072 10.5584H7.94458ZM13.7327 1.62436H2.2236V8.16243C2.60202 7.83528 3.06818 7.59039 3.5824 7.44862C4.09661 7.30684 4.64367 7.27236 5.177 7.34813C5.71034 7.42389 6.21416 7.60766 6.6456 7.88377C7.07703 8.15989 7.4233 8.52019 7.65493 8.934H13.0968C13.2579 8.6473 13.4737 8.38659 13.7327 8.16243V1.62436ZM15.6509 6.49746H19.4872V6.26599L17.5614 4.06091H15.6509V6.49746ZM16.1304 11.3705C16.5121 11.3705 16.8781 11.2422 17.148 11.0136C17.4179 10.7851 17.5695 10.4751 17.5695 10.1519C17.5695 9.82866 17.4179 9.51868 17.148 9.29013C16.8781 9.06159 16.5121 8.93319 16.1304 8.93319C15.7487 8.93319 15.3827 9.06159 15.1128 9.29013C14.8429 9.51868 14.6913 9.82866 14.6913 10.1519C14.6913 10.4751 14.8429 10.7851 15.1128 11.0136C15.3827 11.2422 15.7487 11.3705 16.1304 11.3705ZM6.05997 10.1523C6.05997 9.99229 6.02275 9.83387 5.95046 9.68606C5.87816 9.53825 5.77219 9.40395 5.6386 9.29083C5.50501 9.1777 5.34642 9.08796 5.17187 9.02674C4.99733 8.96552 4.81025 8.934 4.62133 8.934C4.4324 8.934 4.24533 8.96552 4.07079 9.02674C3.89624 9.08796 3.73765 9.1777 3.60406 9.29083C3.47047 9.40395 3.3645 9.53825 3.2922 9.68606C3.2199 9.83387 3.18269 9.99229 3.18269 10.1523C3.18269 10.4754 3.33426 10.7853 3.60406 11.0137C3.87386 11.2422 4.23978 11.3705 4.62133 11.3705C5.00288 11.3705 5.3688 11.2422 5.6386 11.0137C5.9084 10.7853 6.05997 10.4754 6.05997 10.1523Z" fill="#101010"/>
</svg>
