<svg width="370" height="45" viewBox="0 0 370 45" fill="none" xmlns="http://www.w3.org/2000/svg">
<rect x="0.601562" width="368.867" height="45" rx="15" fill="#D6D6D6"/>
<path d="M16.2066 26.68C16.7266 26.87 17.2066 26.92 17.6466 26.83C18.0866 26.73 18.4816 26.395 18.8316 25.825L19.3416 25.015L19.4916 24.85L23.3466 17.5H24.8316L20.1666 26.14C19.8166 26.8 19.4066 27.3 18.9366 27.64C18.4766 27.97 17.9766 28.15 17.4366 28.18C16.9066 28.22 16.3666 28.12 15.8166 27.88L16.2066 26.68ZM19.4466 26.185L14.8416 17.5H16.4466L20.2716 24.985L19.4466 26.185ZM24.4764 27.985L24.5664 26.77C24.6364 26.78 24.7014 26.79 24.7614 26.8C24.8214 26.81 24.8764 26.815 24.9264 26.815C25.2464 26.815 25.4964 26.705 25.6764 26.485C25.8664 26.265 26.0064 25.975 26.0964 25.615C26.1864 25.245 26.2514 24.83 26.2914 24.37C26.3314 23.91 26.3614 23.45 26.3814 22.99L26.5164 20.05H32.6214V28H31.1814V20.89L31.5264 21.31H27.4464L27.7764 20.875L27.6714 23.08C27.6414 23.78 27.5864 24.435 27.5064 25.045C27.4264 25.655 27.3014 26.19 27.1314 26.65C26.9714 27.11 26.7464 27.47 26.4564 27.73C26.1764 27.99 25.8114 28.12 25.3614 28.12C25.2314 28.12 25.0914 28.105 24.9414 28.075C24.8014 28.055 24.6464 28.025 24.4764 27.985ZM35.4057 28V20.05H36.8457V25.84L41.7207 20.05H43.0257V28H41.5857V22.21L36.7257 28H35.4057ZM45.8208 28V20.05H47.2608V26.74H51.6108V20.05H53.0508V28H45.8208ZM52.9458 29.845V27.925L53.3058 28H51.6108V26.74H54.3108V29.845H52.9458ZM61.0522 28V26.32L60.9772 26.005V23.14C60.9772 22.53 60.7972 22.06 60.4372 21.73C60.0872 21.39 59.5572 21.22 58.8472 21.22C58.3772 21.22 57.9172 21.3 57.4672 21.46C57.0172 21.61 56.6372 21.815 56.3272 22.075L55.7272 20.995C56.1372 20.665 56.6272 20.415 57.1972 20.245C57.7772 20.065 58.3822 19.975 59.0122 19.975C60.1022 19.975 60.9422 20.24 61.5322 20.77C62.1222 21.3 62.4172 22.11 62.4172 23.2V28H61.0522ZM58.4422 28.09C57.8522 28.09 57.3322 27.99 56.8822 27.79C56.4422 27.59 56.1022 27.315 55.8622 26.965C55.6222 26.605 55.5022 26.2 55.5022 25.75C55.5022 25.32 55.6022 24.93 55.8022 24.58C56.0122 24.23 56.3472 23.95 56.8072 23.74C57.2772 23.53 57.9072 23.425 58.6972 23.425H61.2172V24.46H58.7572C58.0372 24.46 57.5522 24.58 57.3022 24.82C57.0522 25.06 56.9272 25.35 56.9272 25.69C56.9272 26.08 57.0822 26.395 57.3922 26.635C57.7022 26.865 58.1322 26.98 58.6822 26.98C59.2222 26.98 59.6922 26.86 60.0922 26.62C60.5022 26.38 60.7972 26.03 60.9772 25.57L61.2622 26.56C61.0722 27.03 60.7372 27.405 60.2572 27.685C59.7772 27.955 59.1722 28.09 58.4422 28.09ZM67.2236 29.5L72.1736 15.37H73.4786L68.5286 29.5H67.2236ZM78.5803 28V17.5H82.6753C83.5953 17.5 84.3803 17.645 85.0303 17.935C85.6803 18.225 86.1803 18.645 86.5303 19.195C86.8803 19.745 87.0553 20.4 87.0553 21.16C87.0553 21.92 86.8803 22.575 86.5303 23.125C86.1803 23.665 85.6803 24.085 85.0303 24.385C84.3803 24.675 83.5953 24.82 82.6753 24.82H79.4053L80.0803 24.115V28H78.5803ZM80.0803 24.265L79.4053 23.515H82.6303C83.5903 23.515 84.3153 23.31 84.8053 22.9C85.3053 22.49 85.5553 21.91 85.5553 21.16C85.5553 20.41 85.3053 19.83 84.8053 19.42C84.3153 19.01 83.5903 18.805 82.6303 18.805H79.4053L80.0803 18.055V24.265ZM93.7036 28V26.32L93.6286 26.005V23.14C93.6286 22.53 93.4486 22.06 93.0886 21.73C92.7386 21.39 92.2086 21.22 91.4986 21.22C91.0286 21.22 90.5686 21.3 90.1186 21.46C89.6686 21.61 89.2886 21.815 88.9786 22.075L88.3786 20.995C88.7886 20.665 89.2786 20.415 89.8486 20.245C90.4286 20.065 91.0336 19.975 91.6636 19.975C92.7536 19.975 93.5936 20.24 94.1836 20.77C94.7736 21.3 95.0686 22.11 95.0686 23.2V28H93.7036ZM91.0936 28.09C90.5036 28.09 89.9836 27.99 89.5336 27.79C89.0936 27.59 88.7536 27.315 88.5136 26.965C88.2736 26.605 88.1536 26.2 88.1536 25.75C88.1536 25.32 88.2536 24.93 88.4536 24.58C88.6636 24.23 88.9986 23.95 89.4586 23.74C89.9286 23.53 90.5586 23.425 91.3486 23.425H93.8686V24.46H91.4086C90.6886 24.46 90.2036 24.58 89.9536 24.82C89.7036 25.06 89.5786 25.35 89.5786 25.69C89.5786 26.08 89.7336 26.395 90.0436 26.635C90.3536 26.865 90.7836 26.98 91.3336 26.98C91.8736 26.98 92.3436 26.86 92.7436 26.62C93.1536 26.38 93.4486 26.03 93.6286 25.57L93.9136 26.56C93.7236 27.03 93.3886 27.405 92.9086 27.685C92.4286 27.955 91.8236 28.09 91.0936 28.09ZM97.6616 28V20.05H99.1016V25.84L103.977 20.05H105.282V28H103.842V22.21L98.9816 28H97.6616ZM101.382 19.015C100.652 19.015 100.077 18.84 99.6566 18.49C99.2466 18.13 99.0366 17.615 99.0266 16.945H100.002C100.012 17.325 100.137 17.625 100.377 17.845C100.627 18.065 100.957 18.175 101.367 18.175C101.777 18.175 102.107 18.065 102.357 17.845C102.607 17.625 102.737 17.325 102.747 16.945H103.752C103.742 17.615 103.527 18.13 103.107 18.49C102.687 18.84 102.112 19.015 101.382 19.015ZM111.482 28.09C110.682 28.09 109.972 27.915 109.352 27.565C108.732 27.215 108.242 26.735 107.882 26.125C107.522 25.505 107.342 24.805 107.342 24.025C107.342 23.235 107.522 22.535 107.882 21.925C108.242 21.315 108.732 20.84 109.352 20.5C109.972 20.15 110.682 19.975 111.482 19.975C112.272 19.975 112.977 20.15 113.597 20.5C114.227 20.84 114.717 21.315 115.067 21.925C115.427 22.525 115.607 23.225 115.607 24.025C115.607 24.815 115.427 25.515 115.067 26.125C114.717 26.735 114.227 27.215 113.597 27.565C112.977 27.915 112.272 28.09 111.482 28.09ZM111.482 26.83C111.992 26.83 112.447 26.715 112.847 26.485C113.257 26.255 113.577 25.93 113.807 25.51C114.037 25.08 114.152 24.585 114.152 24.025C114.152 23.455 114.037 22.965 113.807 22.555C113.577 22.135 113.257 21.81 112.847 21.58C112.447 21.35 111.992 21.235 111.482 21.235C110.972 21.235 110.517 21.35 110.117 21.58C109.717 21.81 109.397 22.135 109.157 22.555C108.917 22.965 108.797 23.455 108.797 24.025C108.797 24.585 108.917 25.08 109.157 25.51C109.397 25.93 109.717 26.255 110.117 26.485C110.517 26.715 110.972 26.83 111.482 26.83ZM117.686 28V20.05H119.126V23.425H123.656V20.05H125.096V28H123.656V24.67H119.126V28H117.686Z" fill="#8E8E8E"/>
<path d="M350.715 20.6568L349.329 19.2428L340.201 28.5568V29.9708H341.587L350.715 20.6568ZM352.1 19.2428L353.486 17.8288L352.1 16.4148L350.715 17.8288L352.1 19.2428ZM342.398 31.9708H338.241V27.7278L351.408 14.2928C351.591 14.1053 351.841 14 352.1 14C352.36 14 352.609 14.1053 352.793 14.2928L355.566 17.1218C355.749 17.3093 355.853 17.5636 355.853 17.8288C355.853 18.094 355.749 18.3483 355.566 18.5358L342.399 31.9708H342.398Z" fill="#8E8E8E"/>
</svg>
